<?xml version="1.0" encoding="utf-8"?>
<!-- Generator: Adobe Illustrator 26.5.0, SVG Export Plug-In . SVG Version: 6.00 Build 0)  -->
<svg version="1.1" id="Layer_1" xmlns="http://www.w3.org/2000/svg" xmlns:xlink="http://www.w3.org/1999/xlink" x="0px" y="0px"
	 viewBox="0 0 32 32" style="enable-background:new 0 0 32 32;" xml:space="preserve">
<style type="text/css">
	.st0{fill:url(#SVGID_1_);}
	.st1{fill:#D25ED4;}
	.st2{fill:#1E52B9;}
</style>
<g>
	<linearGradient id="SVGID_1_" gradientUnits="userSpaceOnUse" x1="0.5455" y1="6.6337" x2="31.4545" y2="6.6337">
		<stop  offset="0" style="stop-color:#01B1E0"/>
		<stop  offset="0.3324" style="stop-color:#1E52B9"/>
		<stop  offset="0.6453" style="stop-color:#6B33B0"/>
		<stop  offset="0.9944" style="stop-color:#8E3DAD"/>
	</linearGradient>
	<path class="st0" d="M22.9,4c3.9,0.8,8.1,2.4,8.5,5.9h-4.9C26.4,7,24.8,5.2,22.9,4z M6.5,9.9h3.9c0.1-3.2,1.1-5.1,2.2-6.1
		C10,4.4,6.8,6,6.5,9.9L6.5,9.9z M21.6,9.9h3.9C25.2,6,22,4.4,19.4,3.7C20.5,4.8,21.5,6.7,21.6,9.9L21.6,9.9z M16.6,3.4v6.5h3.9
		C20.3,4.8,17.7,3.6,16.6,3.4L16.6,3.4z M0.5,9.9h4.9C5.6,7,7.2,5.2,9.1,4C5.1,4.8,1,6.5,0.5,9.9z M11.5,9.9h3.9V3.4
		C14.3,3.6,11.7,4.8,11.5,9.9L11.5,9.9z"/>
	<g>
		<path class="st1" d="M16.1,12.4h12.4c0.6,0,1,0.1,1.2,0.4c0.2,0.3,0.4,0.6,0.4,1.1c0,0.4-0.1,0.7-0.2,1c-0.1,0.3-0.2,0.5-0.2,0.6
			h-5.3v13.2h-3.4V15.4h-3.7c-0.6,0-1-0.1-1.2-0.4c-0.2-0.3-0.4-0.6-0.4-1.1c0-0.3,0.1-0.7,0.2-1C16,12.7,16.1,12.5,16.1,12.4z"/>
		<path class="st2" d="M1.8,28.6V14.3c0-1.2,0.6-1.8,1.9-1.8h4.4c0.3,0,0.6,0,1,0c0.3,0,0.6,0.1,0.9,0.1c0.9,0.2,1.7,0.5,2.3,1
			c0.6,0.5,1,1.1,1.3,1.8c0.3,0.7,0.4,1.5,0.4,2.3c0,0.9-0.2,1.8-0.7,2.6c-0.5,0.9-1.2,1.5-2.1,2c0.3,0.3,0.6,0.8,0.9,1.3
			c0.4,0.5,0.7,1.1,1.1,1.7c0.4,0.6,0.7,1.2,1,1.8c0.3,0.6,0.6,1.1,0.8,1.5h-3.9c-0.1-0.2-0.3-0.6-0.5-1c-0.2-0.5-0.5-1-0.8-1.5
			c-0.3-0.5-0.7-1.1-1-1.6c-0.3-0.5-0.7-1-1-1.4c-0.5,0-0.9,0-1.3,0c-0.4,0-0.8,0-1.3-0.1v5.7H1.8z M10.5,17.7c0-0.5-0.1-1-0.3-1.4
			C10,15.9,9.6,15.6,9,15.4c-0.4-0.1-0.9-0.2-1.5-0.2H5.2v4.9c0.1,0,0.3,0.1,0.5,0.1c0.3,0,0.7,0.1,1.3,0.1c0.9,0,1.6-0.1,2.1-0.4
			c0.5-0.2,0.9-0.5,1.1-0.9C10.4,18.6,10.5,18.1,10.5,17.7z"/>
	</g>
</g>
</svg>
