<?xml version="1.0" encoding="utf-8"?>
<!-- Generator: Adobe Illustrator 26.5.0, SVG Export Plug-In . SVG Version: 6.00 Build 0)  -->
<svg version="1.1" id="Layer_1" xmlns="http://www.w3.org/2000/svg" xmlns:xlink="http://www.w3.org/1999/xlink" x="0px" y="0px"
	 viewBox="0 0 128 128" style="enable-background:new 0 0 128 128;" xml:space="preserve">
<style type="text/css">
	.st0{fill:url(#SVGID_1_);}
	.st1{fill:#D25ED4;}
	.st2{fill:#1E52B9;}
</style>
<g>
	<linearGradient id="SVGID_1_" gradientUnits="userSpaceOnUse" x1="8.3171" y1="30.2531" x2="119.6829" y2="30.2531">
		<stop  offset="0" style="stop-color:#01B1E0"/>
		<stop  offset="0.3324" style="stop-color:#1E52B9"/>
		<stop  offset="0.6453" style="stop-color:#6B33B0"/>
		<stop  offset="0.9944" style="stop-color:#8E3DAD"/>
	</linearGradient>
	<path class="st0" d="M89,20.9c14.1,2.9,29.2,8.8,30.7,21.1h-17.5C101.5,31.5,95.8,24.9,89,20.9z M29.8,42h14.1
		c0.4-11.5,3.9-18.2,7.9-22.2C42.4,22.2,30.8,28,29.8,42L29.8,42z M84.1,42h14.1c-1-14.1-12.6-19.8-22-22.2
		C80.2,23.8,83.7,30.5,84.1,42L84.1,42z M66,18.5V42h14.1C79.5,23.6,70.2,19.4,66,18.5L66,18.5z M8.3,42h17.5
		c0.6-10.5,6.3-17.1,13.2-21.1C24.9,23.8,9.8,29.7,8.3,42z M47.9,42H62V18.5C57.8,19.4,48.5,23.6,47.9,42L47.9,42z"/>
	<g>
		<path class="st1" d="M64.4,51.2h44.8c2.1,0,3.6,0.5,4.5,1.4c0.9,0.9,1.3,2.2,1.3,3.9c0,1.3-0.2,2.5-0.5,3.5c-0.4,1-0.7,1.7-0.9,2
			h-19v47.5H82.2V62H68.7c-2.1,0-3.6-0.5-4.5-1.4c-0.9-0.9-1.3-2.2-1.3-3.9c0-1.2,0.2-2.4,0.6-3.4C63.9,52.2,64.2,51.5,64.4,51.2z"
			/>
		<path class="st2" d="M13,109.5V57.8c0-4.4,2.3-6.6,6.9-6.6h15.8c1.1,0,2.2,0.1,3.4,0.2c1.2,0.1,2.3,0.3,3.2,0.4
			c3.3,0.7,6,1.9,8.1,3.7c2.1,1.8,3.8,3.9,4.8,6.4c1.1,2.5,1.6,5.2,1.6,8.2c0,3.2-0.8,6.3-2.5,9.4c-1.7,3.1-4.2,5.5-7.5,7.1
			c0.9,1.2,2,2.8,3.3,4.7c1.3,1.9,2.6,3.9,3.9,6.2c1.3,2.2,2.6,4.4,3.8,6.4c1.2,2.1,2.1,3.9,2.9,5.5H46.6c-0.4-0.8-1-2.1-1.9-3.8
			c-0.9-1.7-1.9-3.5-3.1-5.5c-1.2-2-2.4-3.9-3.6-5.9c-1.2-2-2.4-3.7-3.6-5.2c-1.8,0-3.4,0-4.7,0c-1.3,0-2.9-0.1-4.7-0.3v20.7H13z
			 M44.3,70c0-1.9-0.4-3.6-1.2-5.1c-0.8-1.5-2.2-2.5-4.3-3.2c-1.5-0.5-3.3-0.7-5.4-0.7h-8.3v17.6c0.3,0.1,0.9,0.2,2,0.4
			c1,0.1,2.5,0.2,4.6,0.2c3.3,0,5.9-0.4,7.7-1.3c1.9-0.8,3.2-2,3.9-3.4C43.9,73.2,44.3,71.7,44.3,70z"/>
	</g>
</g>
</svg>
