<?xml version="1.0" encoding="utf-8"?>
<!-- Generator: Adobe Illustrator 26.5.0, SVG Export Plug-In . SVG Version: 6.00 Build 0)  -->
<svg version="1.1" id="Layer_1" xmlns="http://www.w3.org/2000/svg" xmlns:xlink="http://www.w3.org/1999/xlink" x="0px" y="0px"
	 viewBox="0 0 500 500" style="enable-background:new 0 0 500 500;" xml:space="preserve">
<style type="text/css">
	.st0{opacity:0.03;}
	.st1{fill:#3F5CFD;}
	.st2{fill:#D25ED4;}
	.st3{fill:#FFBD59;}
	.st4{fill:none;stroke:#000000;stroke-width:2.6029;stroke-miterlimit:10;}
	.st5{fill:#FFFFFF;}
	.st6{fill:#231F20;}
	.st7{fill:url(#SVGID_1_);}
	.st8{fill:#1E52B9;}
	.st9{fill:url(#SVGID_00000067226033600467029630000013459965065082513326_);}
	.st10{fill:#71FDDD;}
	.st11{fill:url(#SVGID_00000030469656885572951940000017492014699725573281_);}
	.st12{fill:url(#SVGID_00000181065912576197443680000000702712707808079494_);}
	.st13{fill:url(#SVGID_00000095312544631515884030000011637443830943614105_);}
	.st14{fill:url(#SVGID_00000096742416818803064300000013716008025026034311_);}
	.st15{fill-rule:evenodd;clip-rule:evenodd;fill:#FFFFFF;}
	.st16{clip-path:url(#SVGID_00000083805791938714982070000017315579090642734222_);}
	.st17{clip-path:url(#SVGID_00000002367758388432547530000014832326477925041794_);}
	.st18{clip-path:url(#SVGID_00000057834131807166946450000012342992348863515045_);}
	.st19{clip-path:url(#SVGID_00000021091275445966158600000006698024549316811707_);}
	.st20{clip-path:url(#SVGID_00000042011708588785897140000005278327742861532065_);}
	.st21{clip-path:url(#SVGID_00000023241808815577315830000013413136824977903259_);}
	.st22{clip-path:url(#SVGID_00000003818162876942909450000000744664345281782201_);}
	.st23{clip-path:url(#SVGID_00000183235371162584763190000002525477043238036142_);}
	.st24{clip-path:url(#SVGID_00000063611261856049041940000013644792412626055300_);}
	.st25{clip-path:url(#SVGID_00000139252647778338081650000017984404473671420560_);}
	.st26{clip-path:url(#SVGID_00000025424358588456475950000002794633607134332039_);}
	.st27{clip-path:url(#SVGID_00000183939575783334969730000016091226596408702894_);}
	.st28{clip-path:url(#SVGID_00000173127372866221834030000005250438095830795455_);}
	.st29{clip-path:url(#SVGID_00000035501175573021367910000011764724214559344821_);}
	.st30{clip-path:url(#SVGID_00000001658824268773431070000005407297146822203818_);}
	.st31{clip-path:url(#SVGID_00000090275114582354556580000010376832208014285704_);}
	.st32{clip-path:url(#SVGID_00000128450075766716168370000000095591757202447787_);}
	.st33{clip-path:url(#SVGID_00000091010007678502964570000001538829240461587865_);}
	.st34{clip-path:url(#SVGID_00000132054634838441038010000001863763936922009790_);}
	.st35{clip-path:url(#SVGID_00000000213968815874196730000009746397553643017379_);}
	.st36{clip-path:url(#SVGID_00000075872782202225934760000002394314165371462281_);}
	.st37{clip-path:url(#SVGID_00000105417027010630399940000011217618747431398833_);}
	.st38{clip-path:url(#SVGID_00000084515994276382315920000002229340801958467767_);}
	.st39{clip-path:url(#SVGID_00000141435154464107316520000009749980161664946832_);}
	.st40{clip-path:url(#SVGID_00000026862904004501006590000013244039982003619969_);}
	.st41{clip-path:url(#SVGID_00000021810720661668010000000002295067684140618117_);}
	.st42{clip-path:url(#SVGID_00000173849834380654184720000012239685064041664137_);}
	.st43{clip-path:url(#SVGID_00000089542253544436876950000012319315988516958363_);}
	.st44{clip-path:url(#SVGID_00000127035611692297347830000012481696151352706732_);}
	.st45{clip-path:url(#SVGID_00000179639883257296094930000002863965587983581338_);}
	.st46{clip-path:url(#SVGID_00000037661364386325479540000013806874234665017747_);}
	.st47{fill:none;}
	.st48{clip-path:url(#SVGID_00000067915290705667911950000006686677172685585835_);}
	.st49{clip-path:url(#SVGID_00000146488290052462634160000012176001317343602828_);}
	.st50{clip-path:url(#SVGID_00000053515236923616813640000000111821167252938162_);}
	.st51{clip-path:url(#SVGID_00000042717339066849034580000014605904286837411987_);}
	.st52{clip-path:url(#SVGID_00000169545823454723654460000004376058489791997568_);}
	.st53{clip-path:url(#SVGID_00000044862156232572298150000007324406529111756971_);}
	.st54{clip-path:url(#SVGID_00000011739272387581630630000012756380294017625218_);}
	.st55{clip-path:url(#SVGID_00000062164823204054427850000003603139839578227622_);}
	.st56{clip-path:url(#SVGID_00000117678617041577783740000016199707297422669987_);}
	.st57{clip-path:url(#SVGID_00000005944787415584717880000006111306823231001472_);}
	.st58{clip-path:url(#SVGID_00000149342670129386095150000002128700498869173921_);}
	.st59{clip-path:url(#SVGID_00000049927759271678948810000007340691325561981587_);}
	.st60{clip-path:url(#SVGID_00000003810610301620389520000016513679157582546834_);}
	.st61{clip-path:url(#SVGID_00000163072732206074573130000009099572137581909377_);}
	.st62{clip-path:url(#SVGID_00000138563131041066831930000018101468478757929136_);}
	.st63{clip-path:url(#SVGID_00000133498783609864173930000005724799651735498659_);}
	.st64{clip-path:url(#SVGID_00000173863863015421998810000012397343344425176456_);}
	.st65{clip-path:url(#SVGID_00000124855595422046599350000009360879742275539611_);}
	.st66{clip-path:url(#SVGID_00000129903468423740135880000003167526708723110310_);}
	.st67{clip-path:url(#SVGID_00000166635162476637497800000006009776278425915815_);}
	.st68{clip-path:url(#SVGID_00000162315108947958045740000002056225738655168149_);}
	.st69{clip-path:url(#SVGID_00000119094967749995181370000018049427409952688555_);}
	.st70{clip-path:url(#SVGID_00000103982444988718296040000002244048252917682827_);}
	.st71{clip-path:url(#SVGID_00000021802427663466386010000002780844778971858092_);}
	.st72{clip-path:url(#SVGID_00000182492348429857872240000017087111709189635767_);}
	.st73{clip-path:url(#SVGID_00000011749313032558390960000007809303268017676192_);}
	.st74{clip-path:url(#SVGID_00000123435327015462863750000003352914908397341842_);}
	.st75{clip-path:url(#SVGID_00000158721211959434027790000002776122435567238531_);}
	.st76{clip-path:url(#SVGID_00000030488170237647979940000008924077166440124820_);}
	.st77{clip-path:url(#SVGID_00000045616843764272628120000012523377446470523033_);}
	.st78{clip-path:url(#SVGID_00000159465293014057509000000009286892947406309262_);}
	.st79{clip-path:url(#SVGID_00000038382644308672859620000008090387243864366266_);}
	.st80{clip-path:url(#SVGID_00000018226172931344804330000011204675170836164012_);}
	.st81{clip-path:url(#SVGID_00000076569758991453312010000003953564577967751047_);}
	.st82{clip-path:url(#SVGID_00000013187128962553769960000012234064259539163052_);}
	.st83{clip-path:url(#SVGID_00000170978336716543309790000002555831769819856053_);}
	.st84{clip-path:url(#SVGID_00000178179764047857267630000004244771103239825044_);}
	.st85{clip-path:url(#SVGID_00000079458854098549784920000014215095139469832588_);}
	.st86{clip-path:url(#SVGID_00000090287100151435457290000017117969932135768966_);}
	.st87{clip-path:url(#SVGID_00000099627355589875803100000017250007291103008140_);}
	.st88{clip-path:url(#SVGID_00000147901235239621693390000008891584640897037492_);}
	.st89{clip-path:url(#SVGID_00000089572304681667108380000011200951773363494025_);}
	.st90{clip-path:url(#SVGID_00000088103763643188104280000013069838044704638354_);}
	.st91{clip-path:url(#SVGID_00000074426959392668580510000011830832538004792729_);}
	.st92{clip-path:url(#SVGID_00000005244824846659992370000000066432487913496481_);}
	.st93{clip-path:url(#SVGID_00000093879190317902271600000013380048974825309093_);}
	.st94{clip-path:url(#SVGID_00000061460042373546888600000009231495492844235934_);}
	.st95{clip-path:url(#SVGID_00000141424801620140569270000011641021535747865476_);}
	.st96{clip-path:url(#SVGID_00000124143490171099632610000016314209921149416849_);}
	.st97{clip-path:url(#SVGID_00000137120045382869499510000012334689644302471091_);}
	.st98{clip-path:url(#SVGID_00000060006621592022881340000004689128676113411459_);}
	.st99{clip-path:url(#SVGID_00000059272381649106438260000006059795769775678396_);}
	.st100{clip-path:url(#SVGID_00000017477169959692951000000008941319003234641317_);}
	.st101{clip-path:url(#SVGID_00000152227313546343819630000001065638237123380905_);}
	.st102{clip-path:url(#SVGID_00000147207241967241854420000013844600305424462231_);}
	.st103{clip-path:url(#SVGID_00000135688615462295562150000016071002593569644447_);}
	.st104{clip-path:url(#SVGID_00000165222373654872460100000018216612824692882361_);}
	.st105{clip-path:url(#SVGID_00000132773503729212148730000013834829919001748610_);}
	.st106{clip-path:url(#SVGID_00000088134430644633966360000000232260623977860025_);}
	.st107{clip-path:url(#SVGID_00000114767451340235112160000012800854336929818807_);}
	.st108{clip-path:url(#SVGID_00000168108014699905214190000014668329219478435492_);}
	.st109{clip-path:url(#SVGID_00000064348869757668873380000012235344860941945279_);}
	.st110{clip-path:url(#SVGID_00000121994694485346277830000010225528079623573167_);fill:#FFBD59;}
	.st111{clip-path:url(#SVGID_00000121994694485346277830000010225528079623573167_);fill:#8B38D7;}
	.st112{fill:#73FBFD;}
	.st113{fill:#6B33B0;}
	.st114{fill:url(#SVGID_00000147911700551609597060000012757987483108189836_);}
	.st115{fill:#01B1E0;}
	.st116{fill:url(#SVGID_00000128486102142198243970000009367471544449723287_);}
	.st117{fill:url(#SVGID_00000144338639114289212320000011243031115803693753_);}
	.st118{fill:#8E3DAD;}
	.st119{fill:#2F4CBA;}
	.st120{fill:#1B308D;}
	.st121{fill:url(#SVGID_00000119078972358948504670000012996320737524789646_);}
	.st122{fill:url(#SVGID_00000127038566511655064980000016873391990414205583_);}
	.st123{fill:url(#SVGID_00000098217903697617730610000016886452013881048487_);}
	.st124{fill:url(#SVGID_00000062158637906030642900000014780802665818713748_);}
	.st125{fill:url(#SVGID_00000049926295376314177290000000734914688555945891_);}
	.st126{fill:url(#SVGID_00000108275266451892449900000006485705110754566292_);}
</style>
<linearGradient id="SVGID_1_" gradientUnits="userSpaceOnUse" x1="99.8181" y1="223.5952" x2="184.479" y2="223.5952">
	<stop  offset="0" style="stop-color:#01B1E0"/>
	<stop  offset="0.3324" style="stop-color:#1E52B9"/>
	<stop  offset="0.6453" style="stop-color:#6B33B0"/>
	<stop  offset="0.9944" style="stop-color:#8E3DAD"/>
</linearGradient>
<path class="st7" d="M161.17,216.48c10.72,2.18,22.19,6.69,23.31,16.05h-13.3C170.69,224.53,166.35,219.56,161.17,216.48z
	 M116.15,232.53h10.72c0.28-8.73,2.97-13.84,6.02-16.84C125.72,217.48,116.91,221.85,116.15,232.53L116.15,232.53z M157.43,232.53
	h10.72c-0.77-10.69-9.57-15.06-16.74-16.84C154.45,218.69,157.15,223.81,157.43,232.53L157.43,232.53z M143.66,214.66v17.88h10.73
	C153.92,218.52,146.85,215.37,143.66,214.66L143.66,214.66z M99.82,232.53h13.3c0.49-8,4.83-12.97,10.01-16.05
	C112.41,218.66,100.94,223.17,99.82,232.53z M129.9,232.53h10.73v-17.88C137.45,215.36,130.38,218.51,129.9,232.53L129.9,232.53z"/>
<g>
	<path class="st8" d="M99.51,267.74V243.1c0-2.1,1.09-3.16,3.28-3.16h7.53c0.51,0,1.06,0.03,1.64,0.08c0.58,0.05,1.09,0.12,1.52,0.2
		c1.56,0.32,2.86,0.91,3.88,1.76c1.02,0.85,1.79,1.88,2.31,3.07c0.51,1.2,0.77,2.5,0.77,3.9c0,1.51-0.4,3.01-1.19,4.49
		c-0.8,1.48-1.99,2.62-3.58,3.4c0.43,0.59,0.95,1.34,1.56,2.25s1.23,1.88,1.86,2.93c0.63,1.05,1.23,2.08,1.8,3.08
		c0.57,1,1.02,1.88,1.38,2.63h-6.72c-0.19-0.4-0.49-1-0.91-1.8c-0.42-0.79-0.9-1.67-1.46-2.61c-0.55-0.94-1.13-1.88-1.72-2.81
		c-0.59-0.93-1.16-1.76-1.7-2.49c-0.86,0-1.61-0.01-2.25-0.02c-0.63-0.01-1.38-0.06-2.25-0.14v9.87H99.51z M114.44,248.93
		c0-0.92-0.19-1.73-0.57-2.43c-0.38-0.7-1.07-1.21-2.06-1.54c-0.7-0.22-1.56-0.32-2.59-0.32h-3.97v8.38
		c0.13,0.05,0.45,0.12,0.93,0.18s1.21,0.1,2.18,0.1c1.56,0,2.79-0.2,3.68-0.61s1.51-0.94,1.86-1.6S114.44,249.71,114.44,248.93z"/>
	<path class="st8" d="M144.95,254.39c0,1.67-0.48,3-1.44,3.99c-0.96,0.99-2.64,1.48-5.04,1.48h-8.09c0.24,1.11,0.89,2.04,1.94,2.81
		c1.05,0.77,2.44,1.15,4.17,1.15c1.73,0,3.05-0.13,3.98-0.38c0.93-0.26,1.5-0.44,1.72-0.55l1.54,4.01
		c-0.08,0.05-0.46,0.21-1.13,0.46c-0.67,0.26-1.58,0.5-2.73,0.73c-1.15,0.23-2.5,0.34-4.07,0.34c-2.16,0-4.08-0.38-5.77-1.15
		c-1.69-0.77-3.02-1.95-4.01-3.54c-0.98-1.59-1.48-3.61-1.48-6.07c0-2.24,0.46-4.21,1.38-5.91s2.2-3.01,3.84-3.94
		c1.65-0.93,3.56-1.4,5.75-1.4c2.02,0,3.74,0.36,5.14,1.09c1.4,0.73,2.47,1.69,3.2,2.89C144.58,251.61,144.95,252.94,144.95,254.39z
		 M139.61,253.91c0-0.51-0.14-1.04-0.4-1.6c-0.27-0.55-0.71-1.02-1.31-1.42c-0.61-0.39-1.44-0.59-2.49-0.59
		c-1.16,0-2.12,0.31-2.89,0.93s-1.34,1.38-1.72,2.29c-0.38,0.9-0.57,1.76-0.57,2.57h7.24c0.89,0,1.47-0.18,1.74-0.55
		S139.61,254.64,139.61,253.91z"/>
	<path class="st8" d="M158.58,250.67c-1.59,0-2.68,0.2-3.26,0.59c-0.58,0.39-0.87,0.88-0.87,1.48c0,0.51,0.24,0.93,0.73,1.25
		c0.49,0.32,1.29,0.55,2.43,0.69l3.48,0.45c2.51,0.32,4.35,0.98,5.52,1.98s1.76,2.36,1.76,4.09c0,2.13-0.84,3.85-2.51,5.16
		c-1.67,1.31-4.13,1.96-7.36,1.96c-2.05,0-3.8-0.2-5.24-0.59c-1.44-0.39-2.58-0.8-3.4-1.23c-0.82-0.43-1.31-0.71-1.48-0.85
		l2.19-3.84c0.11,0.08,0.51,0.3,1.19,0.67c0.69,0.36,1.6,0.72,2.75,1.05c1.15,0.34,2.46,0.5,3.94,0.5c1.43,0,2.45-0.17,3.05-0.5
		c0.61-0.34,0.91-0.83,0.91-1.48c0-0.62-0.25-1.08-0.75-1.4c-0.5-0.31-1.38-0.55-2.65-0.71l-2.67-0.32
		c-2.29-0.3-4.12-0.92-5.48-1.86c-1.36-0.94-2.04-2.43-2.04-4.45c0-1.21,0.3-2.33,0.91-3.36s1.59-1.85,2.95-2.47
		c1.36-0.62,3.18-0.93,5.44-0.93c1.89,0,3.41,0.13,4.57,0.4c1.16,0.27,1.97,0.51,2.43,0.73c1.46,0.62,2.19,1.47,2.19,2.55
		c0,0.67-0.19,1.23-0.57,1.68c-0.38,0.45-0.77,0.79-1.17,1.03c-0.05-0.05-0.34-0.27-0.85-0.65c-0.51-0.38-1.27-0.74-2.29-1.09
		C161.44,250.85,160.15,250.67,158.58,250.67z"/>
	<path class="st8" d="M186.09,251.72h-6.23v8.94c0,1.19,0.28,1.99,0.83,2.41s1.27,0.63,2.16,0.63c0.75,0,1.45-0.16,2.08-0.49
		c0.63-0.32,0.98-0.51,1.03-0.57l2.1,3.4c-0.05,0.05-0.34,0.27-0.87,0.65s-1.26,0.74-2.21,1.09c-0.94,0.35-2.09,0.53-3.44,0.53
		c-2.59,0-4.46-0.66-5.62-1.98c-1.16-1.32-1.74-3.03-1.74-5.14v-9.47h-1.33c-0.92,0-1.56-0.2-1.92-0.61
		c-0.36-0.4-0.55-0.97-0.55-1.7c0-0.57,0.08-1.07,0.24-1.5c0.16-0.43,0.27-0.7,0.32-0.81h3.24v-3.56c0-0.92,0.27-1.55,0.81-1.9
		c0.54-0.35,1.25-0.53,2.14-0.53c0.62,0,1.19,0.07,1.72,0.2c0.53,0.14,0.86,0.23,0.99,0.28v5.5h4.33c0.92,0,1.56,0.2,1.92,0.61
		c0.36,0.4,0.55,0.97,0.55,1.7c0,0.57-0.08,1.07-0.24,1.5C186.26,251.34,186.15,251.62,186.09,251.72z"/>
	<path class="st8" d="M205.56,267.74v-2.51c-0.76,0.94-1.61,1.66-2.57,2.14c-0.96,0.49-2.15,0.73-3.58,0.73
		c-1.7,0-3.26-0.38-4.67-1.15s-2.55-1.92-3.4-3.44c-0.85-1.52-1.27-3.41-1.27-5.64c0-2.27,0.47-4.26,1.42-5.99
		c0.94-1.73,2.29-3.07,4.03-4.03c1.74-0.96,3.81-1.44,6.21-1.44c1.94,0,3.59,0.15,4.94,0.45c1.35,0.3,2.4,0.61,3.16,0.95
		c0.75,0.34,1.23,0.56,1.42,0.67v19.26H205.56z M205.56,258.16v-6.55c-0.16-0.08-0.53-0.21-1.11-0.4c-0.58-0.19-1.52-0.28-2.81-0.28
		c-1.89,0-3.32,0.6-4.29,1.8c-0.97,1.2-1.46,2.81-1.46,4.83c0,1.89,0.44,3.36,1.31,4.41c0.88,1.05,2.1,1.58,3.66,1.58
		c1.56,0,2.74-0.51,3.52-1.54C205.16,260.97,205.56,259.69,205.56,258.16z"/>
	<path class="st8" d="M231.21,263.42v-13.88c0-0.92,0.27-1.55,0.81-1.9c0.54-0.35,1.25-0.53,2.14-0.53c0.62,0,1.19,0.07,1.72,0.2
		s0.86,0.23,0.99,0.28v20.15c-0.11,0.05-0.54,0.12-1.29,0.2c-0.76,0.08-1.7,0.16-2.83,0.24s-2.32,0.12-3.56,0.12
		c-4.1,0-7.11-0.78-9.02-2.33c-1.92-1.55-2.87-3.84-2.87-6.86v-9.59c0-0.92,0.27-1.55,0.81-1.9c0.54-0.35,1.25-0.53,2.14-0.53
		c0.62,0,1.19,0.07,1.72,0.2s0.86,0.23,0.99,0.28v10.96c0,1.65,0.45,2.9,1.33,3.76c0.89,0.86,2.35,1.29,4.37,1.29
		c0.75,0,1.32-0.03,1.7-0.08C230.73,263.48,231.02,263.44,231.21,263.42z"/>
	<path class="st8" d="M252.61,251.12c-1.11,0-1.98,0.12-2.61,0.34c-0.63,0.23-1.07,0.41-1.31,0.55v15.74h-5.66v-18.85
		c0.16-0.11,0.64-0.36,1.44-0.77c0.8-0.4,1.85-0.79,3.16-1.15c1.31-0.36,2.78-0.55,4.43-0.55c1.51,0,2.82,0.21,3.92,0.63
		c1.11,0.42,1.66,1.14,1.66,2.16c0,0.76-0.15,1.35-0.45,1.78s-0.55,0.76-0.77,0.97c-0.19-0.16-0.67-0.34-1.46-0.55
		C254.17,251.22,253.39,251.12,252.61,251.12z"/>
	<path class="st8" d="M275.35,267.74v-2.51c-0.76,0.94-1.61,1.66-2.57,2.14c-0.96,0.49-2.15,0.73-3.58,0.73
		c-1.7,0-3.26-0.38-4.67-1.15s-2.55-1.92-3.4-3.44c-0.85-1.52-1.27-3.41-1.27-5.64c0-2.27,0.47-4.26,1.42-5.99
		c0.94-1.73,2.29-3.07,4.03-4.03c1.74-0.96,3.81-1.44,6.21-1.44c1.94,0,3.59,0.15,4.94,0.45c1.35,0.3,2.4,0.61,3.16,0.95
		c0.75,0.34,1.23,0.56,1.42,0.67v19.26H275.35z M275.35,258.16v-6.55c-0.16-0.08-0.53-0.21-1.11-0.4c-0.58-0.19-1.52-0.28-2.81-0.28
		c-1.89,0-3.32,0.6-4.29,1.8c-0.97,1.2-1.46,2.81-1.46,4.83c0,1.89,0.44,3.36,1.31,4.41c0.88,1.05,2.1,1.58,3.66,1.58
		c1.56,0,2.74-0.51,3.52-1.54C274.96,260.97,275.35,259.69,275.35,258.16z"/>
	<path class="st8" d="M307.11,267.74h-5.66v-11.61c0-3.34-1.55-5.02-4.65-5.02c-1.13,0-2.01,0.09-2.63,0.28
		c-0.62,0.19-1.07,0.35-1.33,0.49v15.86h-5.66v-19.38c0.16-0.08,0.68-0.28,1.56-0.61c0.88-0.32,2.02-0.63,3.44-0.91
		c1.42-0.28,3.01-0.42,4.79-0.42c2.02,0,3.8,0.33,5.32,0.99c1.52,0.66,2.71,1.63,3.56,2.91c0.85,1.28,1.27,2.84,1.27,4.67V267.74z"
		/>
	<path class="st2" d="M311.4,239.95h21.36c1.02,0,1.74,0.22,2.14,0.65c0.4,0.43,0.61,1.05,0.61,1.86c0,0.62-0.09,1.17-0.26,1.66
		c-0.18,0.49-0.32,0.81-0.43,0.97h-9.06v22.66h-5.87v-22.66h-6.43c-1,0-1.71-0.22-2.12-0.65c-0.42-0.43-0.63-1.05-0.63-1.86
		c0-0.59,0.09-1.14,0.26-1.64S311.29,240.11,311.4,239.95z"/>
	<path class="st8" d="M353.39,254.39c0,1.67-0.48,3-1.44,3.99c-0.96,0.99-2.64,1.48-5.04,1.48h-8.09c0.24,1.11,0.89,2.04,1.94,2.81
		c1.05,0.77,2.44,1.15,4.17,1.15c1.73,0,3.05-0.13,3.98-0.38c0.93-0.26,1.5-0.44,1.72-0.55l1.54,4.01
		c-0.08,0.05-0.46,0.21-1.13,0.46c-0.67,0.26-1.58,0.5-2.73,0.73c-1.15,0.23-2.5,0.34-4.07,0.34c-2.16,0-4.08-0.38-5.77-1.15
		c-1.69-0.77-3.02-1.95-4.01-3.54c-0.98-1.59-1.48-3.61-1.48-6.07c0-2.24,0.46-4.21,1.38-5.91s2.2-3.01,3.84-3.94
		c1.65-0.93,3.56-1.4,5.75-1.4c2.02,0,3.74,0.36,5.14,1.09c1.4,0.73,2.47,1.69,3.2,2.89C353.03,251.61,353.39,252.94,353.39,254.39z
		 M348.05,253.91c0-0.51-0.14-1.04-0.4-1.6c-0.27-0.55-0.71-1.02-1.31-1.42c-0.61-0.39-1.44-0.59-2.49-0.59
		c-1.16,0-2.12,0.31-2.89,0.93s-1.34,1.38-1.72,2.29c-0.38,0.9-0.57,1.76-0.57,2.57h7.24c0.89,0,1.47-0.18,1.74-0.55
		S348.05,254.64,348.05,253.91z"/>
	<path class="st8" d="M368.89,251.12c-1.73,0-3.14,0.55-4.25,1.64c-1.11,1.09-1.66,2.65-1.66,4.67c0,1.4,0.26,2.58,0.79,3.52
		s1.23,1.65,2.1,2.12c0.88,0.47,1.83,0.71,2.85,0.71c1,0,1.87-0.13,2.61-0.38c0.74-0.26,1.33-0.53,1.76-0.81
		c0.43-0.28,0.67-0.45,0.73-0.51l2.43,3.76c-0.38,0.3-0.92,0.63-1.62,1.01c-0.7,0.38-1.59,0.71-2.67,1.01
		c-1.08,0.3-2.36,0.45-3.84,0.45c-1.97,0-3.78-0.42-5.44-1.25c-1.66-0.84-2.98-2.06-3.97-3.68c-0.98-1.62-1.48-3.6-1.48-5.95
		c0-2.24,0.5-4.17,1.5-5.81c1-1.63,2.33-2.89,4.01-3.76c1.67-0.88,3.52-1.31,5.54-1.31c1.89,0,3.34,0.18,4.35,0.55
		c1.01,0.36,1.72,0.69,2.12,0.99c0.35,0.27,0.65,0.59,0.91,0.97c0.26,0.38,0.38,0.84,0.38,1.38c0,0.43-0.15,0.94-0.45,1.52
		s-0.71,1.09-1.25,1.52c-0.19-0.19-0.51-0.47-0.97-0.85c-0.46-0.38-1.07-0.72-1.82-1.03C370.8,251.27,369.91,251.12,368.89,251.12z"
		/>
	<path class="st8" d="M386.41,238.41v10.68c0.05-0.08,0.29-0.34,0.71-0.77c0.42-0.43,1.08-0.86,1.98-1.27
		c0.9-0.42,2.11-0.63,3.62-0.63c2.37,0,4.34,0.7,5.89,2.08c1.55,1.39,2.33,3.57,2.33,6.53v12.7h-5.66v-11.94
		c0-3.13-1.44-4.69-4.33-4.69c-1.48,0-2.61,0.54-3.38,1.62c-0.77,1.08-1.15,2.44-1.15,4.09v10.92h-5.66v-27.39
		c0-0.92,0.27-1.55,0.81-1.9c0.54-0.35,1.25-0.53,2.14-0.53c0.62,0,1.19,0.07,1.72,0.2C385.94,238.26,386.27,238.36,386.41,238.41z"
		/>
</g>
</svg>
