<?xml version="1.0" encoding="utf-8"?>
<!-- Generator: Adobe Illustrator 26.5.0, SVG Export Plug-In . SVG Version: 6.00 Build 0)  -->
<svg version="1.1" id="Layer_1" xmlns="http://www.w3.org/2000/svg" xmlns:xlink="http://www.w3.org/1999/xlink" x="0px" y="0px"
	 viewBox="0 0 300 300" style="enable-background:new 0 0 300 300;" xml:space="preserve">
<style type="text/css">
	.st0{fill:url(#SVGID_1_);}
	.st1{fill:#1E52B9;}
	.st2{fill:#D25ED4;}
</style>
<g>
	<linearGradient id="SVGID_1_" gradientUnits="userSpaceOnUse" x1="32.0141" y1="135.9199" x2="98.4271" y2="135.9199">
		<stop  offset="0" style="stop-color:#01B1E0"/>
		<stop  offset="0.3324" style="stop-color:#1E52B9"/>
		<stop  offset="0.6453" style="stop-color:#6B33B0"/>
		<stop  offset="0.9944" style="stop-color:#8E3DAD"/>
	</linearGradient>
	<path class="st0" d="M80.1,130.3c8.4,1.7,17.4,5.2,18.3,12.6H88C87.6,136.7,84.2,132.8,80.1,130.3z M44.8,142.9h8.4
		c0.2-6.8,2.3-10.9,4.7-13.2C52.3,131.1,45.4,134.5,44.8,142.9L44.8,142.9z M77.2,142.9h8.4c-0.6-8.4-7.5-11.8-13.1-13.2
		C74.9,132.1,77,136.1,77.2,142.9L77.2,142.9z M66.4,128.9v14h8.4C74.5,131.9,68.9,129.5,66.4,128.9L66.4,128.9z M32,142.9h10.4
		c0.4-6.3,3.8-10.2,7.9-12.6C41.9,132,32.9,135.6,32,142.9z M55.6,142.9H64v-14C61.5,129.5,56,131.9,55.6,142.9L55.6,142.9z"/>
	<g>
		<path class="st1" d="M31.8,170.6v-19.3c0-1.7,0.9-2.5,2.6-2.5h5.9c0.4,0,0.8,0,1.3,0.1c0.5,0,0.9,0.1,1.2,0.2
			c1.2,0.3,2.2,0.7,3,1.4c0.8,0.7,1.4,1.5,1.8,2.4c0.4,0.9,0.6,2,0.6,3.1c0,1.2-0.3,2.4-0.9,3.5c-0.6,1.2-1.6,2.1-2.8,2.7
			c0.3,0.5,0.7,1.1,1.2,1.8c0.5,0.7,1,1.5,1.5,2.3c0.5,0.8,1,1.6,1.4,2.4c0.4,0.8,0.8,1.5,1.1,2.1h-5.3c-0.1-0.3-0.4-0.8-0.7-1.4
			c-0.3-0.6-0.7-1.3-1.1-2c-0.4-0.7-0.9-1.5-1.3-2.2c-0.5-0.7-0.9-1.4-1.3-2c-0.7,0-1.3,0-1.8,0c-0.5,0-1.1,0-1.8-0.1v7.7H31.8z
			 M43.5,155.8c0-0.7-0.1-1.4-0.4-1.9c-0.3-0.6-0.8-1-1.6-1.2c-0.6-0.2-1.2-0.3-2-0.3h-3.1v6.6c0.1,0,0.3,0.1,0.7,0.1
			c0.4,0.1,1,0.1,1.7,0.1c1.2,0,2.2-0.2,2.9-0.5c0.7-0.3,1.2-0.7,1.5-1.3S43.5,156.4,43.5,155.8z"/>
		<path class="st1" d="M67.4,160.1c0,1.3-0.4,2.4-1.1,3.1c-0.8,0.8-2.1,1.2-4,1.2H56c0.2,0.9,0.7,1.6,1.5,2.2
			c0.8,0.6,1.9,0.9,3.3,0.9c1.4,0,2.4-0.1,3.1-0.3c0.7-0.2,1.2-0.3,1.3-0.4l1.2,3.1c-0.1,0-0.4,0.2-0.9,0.4
			c-0.5,0.2-1.2,0.4-2.1,0.6c-0.9,0.2-2,0.3-3.2,0.3c-1.7,0-3.2-0.3-4.5-0.9c-1.3-0.6-2.4-1.5-3.1-2.8c-0.8-1.2-1.2-2.8-1.2-4.8
			c0-1.8,0.4-3.3,1.1-4.6c0.7-1.3,1.7-2.4,3-3.1c1.3-0.7,2.8-1.1,4.5-1.1c1.6,0,2.9,0.3,4,0.9c1.1,0.6,1.9,1.3,2.5,2.3
			C67.1,157.9,67.4,158.9,67.4,160.1z M63.2,159.7c0-0.4-0.1-0.8-0.3-1.3c-0.2-0.4-0.6-0.8-1-1.1c-0.5-0.3-1.1-0.5-2-0.5
			c-0.9,0-1.7,0.2-2.3,0.7c-0.6,0.5-1.1,1.1-1.3,1.8c-0.3,0.7-0.4,1.4-0.4,2h5.7c0.7,0,1.2-0.1,1.4-0.4
			C63.1,160.7,63.2,160.3,63.2,159.7z"/>
		<path class="st1" d="M78.1,157.2c-1.2,0-2.1,0.2-2.6,0.5c-0.5,0.3-0.7,0.7-0.7,1.2c0,0.4,0.2,0.7,0.6,1c0.4,0.3,1,0.4,1.9,0.5
			l2.7,0.3c2,0.3,3.4,0.8,4.3,1.6c0.9,0.8,1.4,1.9,1.4,3.2c0,1.7-0.7,3-2,4c-1.3,1-3.2,1.5-5.8,1.5c-1.6,0-3-0.2-4.1-0.5
			c-1.1-0.3-2-0.6-2.7-1c-0.6-0.3-1-0.6-1.2-0.7l1.7-3c0.1,0.1,0.4,0.2,0.9,0.5c0.5,0.3,1.3,0.6,2.2,0.8c0.9,0.3,1.9,0.4,3.1,0.4
			c1.1,0,1.9-0.1,2.4-0.4c0.5-0.3,0.7-0.7,0.7-1.2c0-0.5-0.2-0.9-0.6-1.1c-0.4-0.2-1.1-0.4-2.1-0.6l-2.1-0.3
			c-1.8-0.2-3.2-0.7-4.3-1.5c-1.1-0.7-1.6-1.9-1.6-3.5c0-1,0.2-1.8,0.7-2.6c0.5-0.8,1.2-1.4,2.3-1.9c1.1-0.5,2.5-0.7,4.3-0.7
			c1.5,0,2.7,0.1,3.6,0.3c0.9,0.2,1.5,0.4,1.9,0.6c1.1,0.5,1.7,1.2,1.7,2c0,0.5-0.1,1-0.4,1.3s-0.6,0.6-0.9,0.8c0,0-0.3-0.2-0.7-0.5
			c-0.4-0.3-1-0.6-1.8-0.9C80.4,157.3,79.3,157.2,78.1,157.2z"/>
		<path class="st1" d="M99.7,158h-4.9v7c0,0.9,0.2,1.6,0.7,1.9c0.4,0.3,1,0.5,1.7,0.5c0.6,0,1.1-0.1,1.6-0.4
			c0.5-0.3,0.8-0.4,0.8-0.4l1.7,2.7c0,0-0.3,0.2-0.7,0.5c-0.4,0.3-1,0.6-1.7,0.9c-0.7,0.3-1.6,0.4-2.7,0.4c-2,0-3.5-0.5-4.4-1.6
			c-0.9-1-1.4-2.4-1.4-4V158h-1c-0.7,0-1.2-0.2-1.5-0.5c-0.3-0.3-0.4-0.8-0.4-1.3c0-0.4,0.1-0.8,0.2-1.2c0.1-0.3,0.2-0.6,0.3-0.6
			h2.5v-2.8c0-0.7,0.2-1.2,0.6-1.5c0.4-0.3,1-0.4,1.7-0.4c0.5,0,0.9,0.1,1.3,0.2c0.4,0.1,0.7,0.2,0.8,0.2v4.3h3.4
			c0.7,0,1.2,0.2,1.5,0.5c0.3,0.3,0.4,0.8,0.4,1.3c0,0.4-0.1,0.8-0.2,1.2C99.8,157.7,99.7,157.9,99.7,158z"/>
		<path class="st1" d="M115,170.6v-2c-0.6,0.7-1.3,1.3-2,1.7c-0.8,0.4-1.7,0.6-2.8,0.6c-1.3,0-2.6-0.3-3.7-0.9
			c-1.1-0.6-2-1.5-2.7-2.7c-0.7-1.2-1-2.7-1-4.4c0-1.8,0.4-3.3,1.1-4.7c0.7-1.4,1.8-2.4,3.2-3.2c1.4-0.8,3-1.1,4.9-1.1
			c1.5,0,2.8,0.1,3.9,0.3c1.1,0.2,1.9,0.5,2.5,0.7c0.6,0.3,1,0.4,1.1,0.5v15.1H115z M115,163v-5.1c-0.1-0.1-0.4-0.2-0.9-0.3
			c-0.5-0.1-1.2-0.2-2.2-0.2c-1.5,0-2.6,0.5-3.4,1.4c-0.8,0.9-1.1,2.2-1.1,3.8c0,1.5,0.3,2.6,1,3.5c0.7,0.8,1.6,1.2,2.9,1.2
			c1.2,0,2.1-0.4,2.8-1.2C114.7,165.2,115,164.2,115,163z"/>
		<path class="st1" d="M135.1,167.2v-10.9c0-0.7,0.2-1.2,0.6-1.5c0.4-0.3,1-0.4,1.7-0.4c0.5,0,0.9,0.1,1.3,0.2
			c0.4,0.1,0.7,0.2,0.8,0.2v15.8c-0.1,0-0.4,0.1-1,0.2c-0.6,0.1-1.3,0.1-2.2,0.2c-0.9,0.1-1.8,0.1-2.8,0.1c-3.2,0-5.6-0.6-7.1-1.8
			c-1.5-1.2-2.3-3-2.3-5.4v-7.5c0-0.7,0.2-1.2,0.6-1.5c0.4-0.3,1-0.4,1.7-0.4c0.5,0,0.9,0.1,1.3,0.2c0.4,0.1,0.7,0.2,0.8,0.2v8.6
			c0,1.3,0.3,2.3,1,3c0.7,0.7,1.8,1,3.4,1c0.6,0,1,0,1.3-0.1C134.7,167.2,134.9,167.2,135.1,167.2z"/>
		<path class="st1" d="M151.9,157.5c-0.9,0-1.5,0.1-2,0.3c-0.5,0.2-0.8,0.3-1,0.4v12.3h-4.4v-14.8c0.1-0.1,0.5-0.3,1.1-0.6
			c0.6-0.3,1.4-0.6,2.5-0.9c1-0.3,2.2-0.4,3.5-0.4c1.2,0,2.2,0.2,3.1,0.5c0.9,0.3,1.3,0.9,1.3,1.7c0,0.6-0.1,1.1-0.3,1.4
			c-0.2,0.3-0.4,0.6-0.6,0.8c-0.1-0.1-0.5-0.3-1.1-0.4C153.1,157.6,152.5,157.5,151.9,157.5z"/>
		<path class="st1" d="M169.7,170.6v-2c-0.6,0.7-1.3,1.3-2,1.7c-0.8,0.4-1.7,0.6-2.8,0.6c-1.3,0-2.6-0.3-3.7-0.9
			c-1.1-0.6-2-1.5-2.7-2.7c-0.7-1.2-1-2.7-1-4.4c0-1.8,0.4-3.3,1.1-4.7c0.7-1.4,1.8-2.4,3.2-3.2c1.4-0.8,3-1.1,4.9-1.1
			c1.5,0,2.8,0.1,3.9,0.3c1.1,0.2,1.9,0.5,2.5,0.7s1,0.4,1.1,0.5v15.1H169.7z M169.7,163v-5.1c-0.1-0.1-0.4-0.2-0.9-0.3
			c-0.5-0.1-1.2-0.2-2.2-0.2c-1.5,0-2.6,0.5-3.4,1.4c-0.8,0.9-1.1,2.2-1.1,3.8c0,1.5,0.3,2.6,1,3.5c0.7,0.8,1.6,1.2,2.9,1.2
			s2.1-0.4,2.8-1.2C169.4,165.2,169.7,164.2,169.7,163z"/>
		<path class="st1" d="M194.6,170.6h-4.4v-9.1c0-2.6-1.2-3.9-3.7-3.9c-0.9,0-1.6,0.1-2.1,0.2c-0.5,0.1-0.8,0.3-1,0.4v12.4H179v-15.2
			c0.1-0.1,0.5-0.2,1.2-0.5c0.7-0.3,1.6-0.5,2.7-0.7c1.1-0.2,2.4-0.3,3.8-0.3c1.6,0,3,0.3,4.2,0.8c1.2,0.5,2.1,1.3,2.8,2.3
			c0.7,1,1,2.2,1,3.7V170.6z"/>
		<path class="st2" d="M198,148.7h16.8c0.8,0,1.4,0.2,1.7,0.5c0.3,0.3,0.5,0.8,0.5,1.5c0,0.5-0.1,0.9-0.2,1.3
			c-0.1,0.4-0.2,0.6-0.3,0.8h-7.1v17.8h-4.6v-17.8h-5c-0.8,0-1.3-0.2-1.7-0.5c-0.3-0.3-0.5-0.8-0.5-1.5c0-0.5,0.1-0.9,0.2-1.3
			C197.8,149.1,197.9,148.9,198,148.7z"/>
		<path class="st1" d="M230.9,160.1c0,1.3-0.4,2.4-1.1,3.1c-0.8,0.8-2.1,1.2-4,1.2h-6.3c0.2,0.9,0.7,1.6,1.5,2.2
			c0.8,0.6,1.9,0.9,3.3,0.9c1.4,0,2.4-0.1,3.1-0.3c0.7-0.2,1.2-0.3,1.3-0.4l1.2,3.1c-0.1,0-0.4,0.2-0.9,0.4
			c-0.5,0.2-1.2,0.4-2.1,0.6c-0.9,0.2-2,0.3-3.2,0.3c-1.7,0-3.2-0.3-4.5-0.9c-1.3-0.6-2.4-1.5-3.1-2.8c-0.8-1.2-1.2-2.8-1.2-4.8
			c0-1.8,0.4-3.3,1.1-4.6c0.7-1.3,1.7-2.4,3-3.1s2.8-1.1,4.5-1.1c1.6,0,2.9,0.3,4,0.9c1.1,0.6,1.9,1.3,2.5,2.3
			C230.6,157.9,230.9,158.9,230.9,160.1z M226.7,159.7c0-0.4-0.1-0.8-0.3-1.3c-0.2-0.4-0.6-0.8-1-1.1c-0.5-0.3-1.1-0.5-2-0.5
			c-0.9,0-1.7,0.2-2.3,0.7c-0.6,0.5-1.1,1.1-1.3,1.8c-0.3,0.7-0.4,1.4-0.4,2h5.7c0.7,0,1.2-0.1,1.4-0.4
			C226.6,160.7,226.7,160.3,226.7,159.7z"/>
		<path class="st1" d="M243.1,157.5c-1.4,0-2.5,0.4-3.3,1.3c-0.9,0.9-1.3,2.1-1.3,3.7c0,1.1,0.2,2,0.6,2.8c0.4,0.7,1,1.3,1.7,1.7
			c0.7,0.4,1.4,0.6,2.2,0.6c0.8,0,1.5-0.1,2-0.3c0.6-0.2,1-0.4,1.4-0.6c0.3-0.2,0.5-0.4,0.6-0.4l1.9,3c-0.3,0.2-0.7,0.5-1.3,0.8
			c-0.6,0.3-1.2,0.6-2.1,0.8c-0.8,0.2-1.9,0.3-3,0.3c-1.5,0-3-0.3-4.3-1c-1.3-0.7-2.3-1.6-3.1-2.9c-0.8-1.3-1.2-2.8-1.2-4.7
			c0-1.8,0.4-3.3,1.2-4.6c0.8-1.3,1.8-2.3,3.1-3c1.3-0.7,2.8-1,4.3-1c1.5,0,2.6,0.1,3.4,0.4c0.8,0.3,1.3,0.5,1.7,0.8
			c0.3,0.2,0.5,0.5,0.7,0.8c0.2,0.3,0.3,0.7,0.3,1.1c0,0.3-0.1,0.7-0.3,1.2c-0.2,0.5-0.6,0.9-1,1.2c-0.1-0.1-0.4-0.4-0.8-0.7
			c-0.4-0.3-0.8-0.6-1.4-0.8C244.6,157.6,243.9,157.5,243.1,157.5z"/>
		<path class="st1" d="M256.8,147.5v8.4c0-0.1,0.2-0.3,0.6-0.6c0.3-0.3,0.8-0.7,1.6-1c0.7-0.3,1.7-0.5,2.8-0.5
			c1.9,0,3.4,0.5,4.6,1.6c1.2,1.1,1.8,2.8,1.8,5.1v10h-4.4v-9.4c0-2.5-1.1-3.7-3.4-3.7c-1.2,0-2,0.4-2.7,1.3
			c-0.6,0.8-0.9,1.9-0.9,3.2v8.6h-4.4v-21.5c0-0.7,0.2-1.2,0.6-1.5c0.4-0.3,1-0.4,1.7-0.4c0.5,0,0.9,0.1,1.3,0.2
			C256.5,147.4,256.7,147.5,256.8,147.5z"/>
	</g>
</g>
</svg>
